<?xml version="1.0" encoding="utf-8" ?><svg xmlns="http://www.w3.org/2000/svg" xmlns:xlink="http://www.w3.org/1999/xlink" width="1024" height="1024" viewBox="0 0 1024 1024"><path fill="#254F43" d="M339.349 120.715C342.911 120.309 347.698 120.473 351.326 120.471C368.32 120.461 385.315 120.472 402.309 120.474L522.593 120.491L627.423 120.468C658.292 120.455 689.769 118.799 719.949 125.136C751.02 131.677 779.944 145.934 804.055 166.594C843.179 200.141 867.148 248.026 870.557 299.449C871.321 310.064 871.107 320.769 871.097 331.419L871.061 376.198L871.071 522.202L871.092 651.926C871.125 680.718 872.716 720.084 867.387 747.469C861.101 780.484 846.292 811.281 824.427 836.804C787.688 879.034 741.172 899.181 686.124 902.944C662.911 904.044 634.299 903.355 610.664 903.31L489.807 903.318L394.358 903.305C363.932 903.325 334.218 905.017 304.362 898.545C272.347 891.646 242.618 876.703 217.98 855.127C179.523 821.094 156.346 773.042 153.654 721.759C152.105 695.462 153.074 661.093 153.103 634.268L153.073 484.833L153.109 370.259C153.082 340.574 151.357 302.663 157.06 274.51C163.763 241.301 179.148 210.461 201.647 185.131C238.167 144.106 285.029 123.824 339.349 120.715Z"/><path fill="white" d="M633.479 781.987C567.681 782.743 500.508 782.001 434.633 782.031L375.7 782.044C363.583 782.04 345.657 782.589 334.33 780.533C320.194 777.905 307.1 771.303 296.581 761.5C280.547 746.341 273.81 726.677 273.7 705.058C273.545 674.65 273.59 644.16 273.597 613.758L273.588 439.213L273.56 352.72C273.56 339.64 272.866 314.93 274.767 303.244C277.171 288.424 284.093 274.709 294.587 263.973C304.831 253.216 318.167 245.912 332.747 243.073C343.523 240.875 357.449 241.465 368.66 241.484L408.72 241.5L524.576 241.501C545.631 241.51 567.46 241.867 588.418 241.442C595.214 246.814 608.189 260.48 614.871 267.158L661.31 313.273L723.535 374.655C731.662 382.731 743.334 393.301 750.49 401.461L750.467 578.297L750.519 634.766C750.529 644.239 750.851 656.201 750.425 665.521C750.557 673.42 750.863 681.806 750.183 689.65C748.202 713.075 738.209 735.102 721.886 752.02C702.782 771.914 676.603 782.318 649.227 782.575C645.725 782.608 636.76 782.586 633.479 781.987Z"/><path fill="#68D199" d="M633.479 781.987C630.759 780.459 624.491 779.944 621.144 778.968C583.102 767.872 555.963 736.735 549.444 697.718C544.894 670.865 551.303 643.308 567.235 621.217C583.464 598.805 606.501 585.193 633.741 580.901C660.412 576.782 687.631 583.367 709.469 599.223C730.156 614.305 745.103 636.892 749.145 662.325C749.37 664.037 749.1 664.373 750.048 665.409L750.425 665.521C750.557 673.42 750.863 681.806 750.183 689.65C748.202 713.075 738.209 735.102 721.886 752.02C702.782 771.914 676.603 782.318 649.227 782.575C645.725 782.608 636.76 782.586 633.479 781.987Z"/><path fill="white" d="M666.177 633.705C675.384 633.269 686.374 633.935 695.12 637.013C700.533 665.786 690.536 701.163 664.146 716.707C647.199 726.689 631.73 728.385 612.805 723.777C625.252 712.267 638.4 698.554 650.769 686.545C654.559 682.825 663.358 676.051 663.713 670.688C663.833 668.869 663.264 667.098 661.993 665.77C660.716 664.435 658.402 663.338 656.522 663.559C651.517 664.146 611.134 705.665 604.818 712.005C604.333 708.795 603.966 705.568 603.718 702.331C602.378 684.608 607.494 668.473 619.277 655.091C632.165 640.455 647.182 635.049 666.177 633.705Z"/><path fill="#68D199" d="M588.418 241.442C595.214 246.814 608.189 260.48 614.871 267.158L661.31 313.273L723.535 374.655C731.662 382.731 743.334 393.301 750.49 401.461L750.467 578.297L750.519 634.766C750.529 644.239 750.851 656.201 750.425 665.521L750.048 665.409C749.1 664.373 749.37 664.037 749.145 662.325L749.585 662.266C750.803 659.707 749.969 429.239 750.008 401.7C744.416 402.244 733.818 401.964 727.991 401.965L687.129 401.959L651.023 402.004C629.417 402.099 610.348 403.532 596.241 383.682C586.216 369.576 588.083 353.379 588.115 336.959L588.181 290.738L588.126 258.318C588.113 254.057 587.794 245.126 588.418 241.442Z"/><path fill="#254F43" d="M352.524 504.07C358.944 503.888 365.602 503.96 372.032 504.003C407.627 504.242 443.317 503.587 478.897 504.036C486.619 508.797 486.204 515.179 478.626 519.857C470.654 520.34 459.301 520.007 451.135 520.01L399.588 520.015L369.12 520.014C364.287 520.015 351.121 521.437 348.342 516.726C345.358 511.668 347.925 507.049 352.524 504.07Z"/><path fill="#254F43" d="M352.793 450.085C364.528 450.103 455.14 448.934 460.212 450.672C462.307 451.391 463.973 453.077 464.848 455.089C465.663 456.963 465.791 459.114 465.008 461.023C463.892 463.745 461.483 465.105 458.913 466.208L386.132 466.237C378.166 466.253 361.109 466.764 353.093 465.842C347.05 465.147 343.513 454.932 352.793 450.085Z"/><path fill="#254F43" d="M461.944 557.682C471.019 557.361 535.757 556.857 538.869 558.299C540.862 559.222 542.428 560.718 543.129 562.824C543.838 564.951 543.873 567.754 542.786 569.749C541.453 572.195 538.489 573.314 535.955 573.918C525.667 573.93 462.588 575.045 458.244 572.945C456.285 571.999 454.845 569.945 454.317 567.873C453.771 565.73 454.051 563.402 455.271 561.531C456.842 559.122 459.252 558.232 461.944 557.682Z"/><path fill="#254F43" d="M353.85 557.64C362.879 557.447 424.439 556.437 428.73 558.484C430.767 559.455 432.416 561.141 433.133 563.3C433.756 565.179 433.624 567.407 432.734 569.18C431.457 571.724 429.494 573.062 426.863 573.946C417.075 573.94 355.65 575.058 351.437 573.162C349.637 572.352 348.256 570.53 347.572 568.726C346.794 566.671 346.658 564.198 347.681 562.203C348.968 559.694 351.242 558.409 353.85 557.64Z"/><path fill="#254F43" d="M492.752 450.188C500.545 449.881 533.578 448.924 539.256 450.999C541.086 451.668 542.444 452.974 543.158 454.787C543.949 456.794 543.929 459.557 543.028 461.528C541.86 464.085 539.368 465.326 536.864 466.23C529.57 466.361 496.039 467.247 491.548 465.7C489.454 464.979 487.654 463.2 486.788 461.181C485.893 459.095 486 456.758 486.926 454.702C488.061 452.179 490.255 451.036 492.752 450.188Z"/></svg>